:SAMPLES-PER-SECOND 30
:FULLY-SPECIFIED
:DEGREES
640
root  15.5713 29.7941 -7.45347 51.1684 2.44587 88.1788
Spine  1.42729 -2.66134 -6.64146
Spine1  1.56046 -0.162694 5.2909
Neck  3.97569e-016 0 -2.38542e-015
Head  -48.7873 17.15 43.4098
R_Clavicle  0.635479 0.504262 3.21252
R_UpperArm  8.75336 19.1296 -10.9412
R_Forearm  -11.147 -41.6874 20.1591
R_Hand  -1.25414 8.4318 -20.8737
L_Clavicle  -0.360585 12.1157 0.58034
L_UpperArm  -18.1361 12.3639 16.4805
L_Forearm  -14.7943 27.6511 35.9359
L_Hand  -0.731842 2.35391 -10.3819
L_Thigh  0.977641 -1.69234 16.1561
L_Calf  5.194 -0.606114 4.55339
L_Foot  4.20483 10.1615 5.84386
L_Toe0  0.505088 0.0344727 -6.13616
R_Thigh  5.9927 -6.60183 -29.5535
R_Calf  -2.36103 4.43891 13.9765
R_Foot  5.42564 17.1588 4.87135
R_Toe0  2.5087 -1.15086 9.05457
641
root  15.6907 30.004 -6.25224 49.4644 2.9753 89.102
Spine  2.38921 -3.70534 -6.21954
Spine1  2.4964 0.096944 4.83364
Neck  3.97569e-016 0 -2.38542e-015
Head  -49.8174 17.3111 44.0039
R_Clavicle  0.524861 1.82236 2.63853
R_UpperArm  15.0197 18.6305 -12.5584
R_Forearm  -23.0967 -48.2435 23.5836
R_Hand  -1.16683 8.97724 -20.2431
L_Clavicle  -0.312986 10.9078 0.172125
L_UpperArm  -10.5902 13.1172 14.3598
L_Forearm  -15.709 27.3316 35.3883
L_Hand  -0.72484 2.36214 -10.272
L_Thigh  -0.993399 -3.173 14.078
L_Calf  3.52427 -0.588018 4.57796
L_Foot  5.05931 10.6001 8.22263
L_Toe0  0.505068 0.0344809 -6.13617
R_Thigh  2.41399 -9.0277 -23.8543
R_Calf  -1.80693 1.69104 5.28453
R_Foot  3.38757 10.8741 -10.4648
R_Toe0  12.4146 -6.82509 13.8058
642
root  15.7868 30.1932 -5.11336 48.6756 3.55994 89.9751
Spine  2.51676 -4.88888 -5.22119
Spine1  2.63424 0.994536 3.38734
Neck  3.97569e-016 0 -2.38542e-015
Head  -49.4058 16.0696 44.3787
R_Clavicle  0.335569 2.65671 1.74938
R_UpperArm  16.7692 18.1419 -14.5561
R_Forearm  -32.6497 -52.7217 27.7586
R_Hand  -0.891999 9.38506 -18.318
L_Clavicle  -0.299453 10.2942 0.228722
L_UpperArm  -2.81177 13.1313 13.7487
L_Forearm  -14.0133 25.028 32.726
L_Hand  -0.729647 2.29366 -10.4326
L_Thigh  -3.05049 -4.94308 11.9327
L_Calf  2.9291 -0.592013 4.76799
L_Foot  6.17815 11.6033 10.7638
L_Toe0  0.505048 0.0344889 -6.13619
R_Thigh  -0.475662 -10.0384 -18.1873
R_Calf  -1.25044 -0.558898 -1.76561
R_Foot  2.5205 3.11098 -20.6043
R_Toe0  19.2743 -7.94378 4.33263
643
root  15.7847 30.4754 -3.9261 49.5726 4.13621 90.1958
Spine  1.91689 -5.55724 -4.19595
Spine1  2.11012 2.7258 2.28791
Neck  3.97569e-016 0 -2.38542e-015
Head  -48.966 14.8625 44.2506
R_Clavicle  0.13156 4.07525 0.889279
R_UpperArm  18.7091 16.9622 -16.2754
R_Forearm  -39.6083 -54.362 30.2677
R_Hand  -0.622356 9.85959 -16.5442
L_Clavicle  -0.299697 10.1721 0.296266
L_UpperArm  1.44235 12.233 13.575
L_Forearm  -10.8344 22.493 28.561
L_Hand  -0.731624 2.30001 -10.4529
L_Thigh  -3.84968 -6.72987 9.00933
L_Calf  3.27406 -0.753338 6.02505
L_Foot  7.22181 13.1341 12.3551
L_Toe0  0.505031 0.0344964 -6.1362
R_Thigh  -1.10455 -9.99645 -14.0338
R_Calf  -1.46527 -2.31825 -7.23412
R_Foot  2.45575 1.85047 -20.4532
R_Toe0  18.4096 -4.25112 -6.7444
644
root  15.7 30.8178 -2.6848 51.047 4.49792 90.1607
Spine  1.63718 -4.71036 -4.58001
Spine1  1.79872 3.23045 3.02402
Neck  3.97569e-016 0 -2.38542e-015
Head  -50.0066 15.5523 43.5515
R_Clavicle  0.0281584 5.16402 0.507022
R_UpperArm  21.848 15.7874 -16.8148
R_Forearm  -43.7755 -54.1649 30.9328
R_Hand  -0.561934 10.4316 -16.2935
L_Clavicle  -0.24768 9.25725 -0.196837
L_UpperArm  3.89275 10.8288 11.7846
L_Forearm  -9.77156 19.9195 24.7326
L_Hand  -0.700424 2.61132 -9.60898
L_Thigh  -3.7717 -8.25095 5.74889
L_Calf  3.43271 -1.0142 8.01253
L_Foot  8.14166 14.409 13.7146
L_Toe0  0.505016 0.0345029 -6.13622
R_Thigh  -0.547522 -9.35277 -10.5746
R_Calf  -2.91272 -3.20803 -10.0316
R_Foot  2.3636 3.80774 -16.3997
R_Toe0  9.35895 -1.35877 -10.752
645
root  15.5861 31.116 -1.45056 52.3842 4.66481 90.4142
Spine  1.72474 -3.50388 -6.14128
Spine1  1.85703 3.00906 4.65106
Neck  3.97569e-016 0 -2.38542e-015
Head  -51.9641 17.5219 42.9482
R_Clavicle  -0.000335017 5.89656 0.429163
R_UpperArm  24.0682 14.6827 -16.6417
R_Forearm  -45.8724 -54.0828 31.5952
R_Hand  -0.669491 10.7824 -17.0825
L_Clavicle  -0.140345 7.53066 -0.917089
L_UpperArm  4.2625 9.73357 8.62844
L_Forearm  -10.2561 17.1798 20.911
L_Hand  -0.657896 3.2523 -8.35294
L_Thigh  -3.6359 -9.73486 2.64299
L_Calf  3.58503 -1.26886 9.9892
L_Foot  9.14808 15.3491 15.5685
L_Toe0  0.505007 0.0345079 -6.13623
R_Thigh  0.0515263 -8.4724 -6.84731
R_Calf  -3.78953 -3.32283 -10.4042
R_Foot  2.40864 5.35008 -13.6617
R_Toe0  7.37743 -1.02703 -11.8659
646
root  15.4547 31.3576 -0.231759 53.7777 4.82457 90.7046
Spine  1.40483 -3.72321 -6.97603
Spine1  1.69757 4.6149 4.70507
Neck  3.97569e-016 0 -2.38542e-015
Head  -52.9072 18.4695 43.3186
R_Clavicle  -0.138486 6.92761 -0.0631515
R_UpperArm  25.1511 13.2762 -16.7131
R_Forearm  -47.6159 -54.077 31.6096
R_Hand  -0.732869 10.8326 -17.5059
L_Clavicle  -0.0952867 6.42476 -0.973258
L_UpperArm  3.48573 9.18913 5.87352
L_Forearm  -11.1064 13.4456 16.0188
L_Hand  -0.640048 4.01776 -7.45775
L_Thigh  -3.36327 -11.0854 -0.565277
L_Calf  4.36207 -1.52843 11.9774
L_Foot  10.0319 16.2311 17.052
L_Toe0  0.505003 0.0345108 -6.13623
R_Thigh  0.929641 -7.41801 -3.32785
R_Calf  -3.81049 -2.75183 -8.61581
R_Foot  2.24421 4.8442 -12.4004
R_Toe0  7.60817 -1.35445 -9.0857
647
root  15.2793 31.5552 0.995081 55.3316 5.04635 90.72
Spine  0.581812 -4.97186 -6.67002
Spine1  1.09743 7.78308 3.05958
Neck  3.97569e-016 0 -2.38542e-015
Head  -52.5083 17.8989 44.3573
R_Clavicle  -0.396716 8.33 -0.933846
R_UpperArm  26.1506 11.4699 -17.2832
R_Forearm  -50.1974 -54.1042 31.451
R_Hand  -0.672126 10.8016 -17.105
L_Clavicle  -0.133736 6.09504 -0.399439
L_UpperArm  3.15263 8.69518 3.42933
L_Forearm  -11.6887 8.52323 9.9574
L_Hand  -0.62588 4.80365 -6.71251
L_Thigh  -2.78133 -12.022 -4.02344
L_Calf  5.25342 -1.81116 14.1062
L_Foot  10.8631 17.3043 18.123
L_Toe0  0.505006 0.0345115 -6.13623
R_Thigh  2.45775 -6.32069 -0.474066
R_Calf  -3.77808 -1.56264 -4.90821
R_Foot  2.07376 4.56692 -10.5675
R_Toe0  3.91276 -1.05437 -4.33786
648
root  15.0612 31.7039 2.2216 56.8236 5.10081 90.6412
Spine  -0.0890237 -5.25191 -7.04282
Spine1  0.55298 9.63513 2.29862
Neck  3.97569e-016 0 -2.38542e-015
Head  -52.2735 17.5079 44.5484
R_Clavicle  -0.532865 9.1214 -1.35891
R_UpperArm  27.5267 10.0353 -17.9942
R_Forearm  -52.8172 -54.0733 31.6262
R_Hand  -0.564207 10.7665 -16.3941
L_Clavicle  -0.120308 5.1024 -0.231763
L_UpperArm  3.52968 7.50738 -0.68137
L_Forearm  -11.9151 3.16494 3.65031
L_Hand  -0.561799 5.67243 -5.51749
L_Thigh  -2.12653 -12.5563 -7.36534
L_Calf  5.94582 -2.09194 16.2151
L_Foot  11.7449 18.3385 19.3091
L_Toe0  0.505017 0.0345093 -6.13622
R_Thigh  4.52282 -5.28638 2.05952
R_Calf  -3.06658 0.18622 0.50954
R_Foot  2.14219 5.49754 -8.77056
R_Toe0  0.514862 -0.235984 -2.53056
649
root  14.8364 31.8037 3.41761 58.0034 4.94161 90.7561
Spine  -0.309357 -4.27082 -8.99616
Spine1  0.479831 9.28995 3.59178
Neck  3.97569e-016 0 -2.38542e-015
Head  -52.8931 18.1541 43.4666
R_Clavicle  -0.427521 8.85521 -1.00085
R_UpperArm  28.7019 9.50552 -18.7193
R_Forearm  -54.2523 -53.9944 32.0079
R_Hand  -0.463093 10.8096 -15.7477
L_Clavicle  -0.000121742 2.93446 -0.713227
L_UpperArm  3.99435 5.51622 -7.15272
L_Forearm  -12.5656 -1.80061 -2.09302
L_Hand  -0.45283 6.72234 -4.01076
L_Thigh  -1.62987 -12.9419 -10.4039
L_Calf  7.00915 -2.36286 18.2582
L_Foot  12.2153 18.8873 19.9172
L_Toe0  0.505038 0.0345037 -6.1362
R_Thigh  6.65102 -4.22428 4.37331
R_Calf  -1.29974 2.41379 7.42858
R_Foot  2.02545 5.11457 -8.20342
R_Toe0  -3.13704 0.450921 -5.73868
650
root  14.613 31.8892 4.59267 58.9611 4.72784 90.9382
Spine  -0.647183 -3.6013 -10.9225
Spine1  0.337749 8.98848 4.92377
Neck  3.97569e-016 0 -2.38542e-015
Head  -53.3763 18.7494 42.4105
R_Clavicle  -0.327422 8.43773 -0.662989
R_UpperArm  29.387 9.22497 -19.6785
R_Forearm  -54.6867 -53.938 32.2257
R_Hand  -0.371814 11.0546 -15.2351
L_Clavicle  0.0894006 0.861942 -0.841358
L_UpperArm  4.46339 3.41801 -14.4448
L_Forearm  -14.5594 -5.96719 -6.9457
L_Hand  -0.34116 7.89988 -2.68604
L_Thigh  -1.12571 -13.2344 -13.5483
L_Calf  8.16266 -2.70552 20.787
L_Foot  12.433 19.4724 19.8596
L_Toe0  0.50507 0.0344944 -6.13617
R_Thigh  8.65524 -2.95111 6.01011
R_Calf  -0.114155 5.0296 15.7393
R_Foot  1.49064 2.34878 -8.84739
R_Toe0  -4.44727 0.210633 -12.3395
651
root  14.3619 32.0134 5.77975 59.8574 4.36182 90.753
Spine  -1.38227 -3.62067 -11.691
Spine1  -0.265352 10.0717 4.79039
Neck  3.97569e-016 0 -2.38542e-015
Head  -53.1221 18.5735 42.3131
R_Clavicle  -0.410312 8.74082 -0.948077
R_UpperArm  29.9336 8.35774 -20.8304
R_Forearm  -54.8696 -53.9398 32.2177
R_Hand  -0.322468 11.3352 -15.0136
L_Clavicle  0.0502384 -0.2017 -0.31069
L_UpperArm  5.09138 1.91131 -21.1642
L_Forearm  -17.6599 -9.02753 -10.5841
L_Hand  -0.20884 9.1167 -1.39998
L_Thigh  -0.462992 -12.9483 -16.9448
L_Calf  8.8959 -3.23404 24.1047
L_Foot  12.3952 19.9802 19.2625
L_Toe0  0.505114 0.0344808 -6.13613
R_Thigh  11.2424 -1.35112 6.72273
R_Calf  0.00553872 7.88601 25.4437
R_Foot  1.16792 -0.194114 -10.7651
R_Toe0  -1.56934 -0.315647 -17.8006
